<svg xmlns="http://www.w3.org/2000/svg" version="1.1" xmlns:xlink="http://www.w3.org/1999/xlink" width="1000" height="1000"><g clip-path="url(#SvgjsClipPath1091)"><rect width="1000" height="1000" fill="#000000"></rect><g transform="matrix(5,0,0,5,0,0)"><svg xmlns="http://www.w3.org/2000/svg" version="1.1" xmlns:xlink="http://www.w3.org/1999/xlink" width="200" height="200"><svg xmlns="http://www.w3.org/2000/svg" version="1.1" xmlns:xlink="http://www.w3.org/1999/xlink" viewBox="0 0 200 200"><rect width="200" height="200" fill="url('#gradient')"></rect><defs><linearGradient id="gradient" gradientTransform="rotate(45 0.5 0.5)"><stop offset="0%" stop-color="#000000"></stop><stop offset="100%" stop-color="#1f7064"></stop></linearGradient><clipPath id="SvgjsClipPath1091"><rect width="1000" height="1000" x="0" y="0" rx="500" ry="500"></rect></clipPath></defs><g><g fill="#00e6c3" transform="matrix(5.72956170345042,0,0,5.72956170345042,7.413056044751599,137.24117450992773)" stroke="#00e6c3" stroke-width="0.2"><path d="M9.08-7.79L3.74-5.95L9.08-4.15L9.08-1.15L0.45-4.67L0.45-7.27L9.08-10.78L9.08-7.79ZM22.09-14.22L17.23 1.22L14.89 1.22L19.75-14.22L22.09-14.22ZM23.28-4.13L28.59-5.98L23.28-7.78L23.28-10.77L31.87-7.26L31.87-4.66L23.28-1.14L23.28-4.13Z"></path></g></g></svg></svg></g></g></svg>